<svg width="213" height="67" viewBox="0 0 213 67" fill="none" xmlns="http://www.w3.org/2000/svg">
<mask id="mask0_2_24" style="mask-type:luminance" maskUnits="userSpaceOnUse" x="0" y="0" width="213" height="67">
<path d="M213 0H0V66.1748H213V0Z" fill="white"/>
</mask>
<g mask="url(#mask0_2_24)">
<path fill-rule="evenodd" clip-rule="evenodd" d="M45.7325 5.19913C41.3116 4.41871 36.8023 5.05792 32.8471 7.3414C22.851 13.1126 20.1807 27.2016 26.8829 38.81C33.5849 50.4183 47.1215 55.1503 57.1176 49.379C61.4786 46.8612 64.4452 42.7602 65.8477 37.9728C63.2969 51.0174 51.8045 60.861 38.013 60.861C22.3488 60.861 9.65048 48.1626 9.65048 32.4984C9.65048 16.8342 22.3488 4.13593 38.013 4.13593C40.6889 4.13593 43.2783 4.5065 45.7325 5.19913Z" fill="#B6C8E4"/>
<path fill-rule="evenodd" clip-rule="evenodd" d="M52.0546 12.6002C54.4906 12.9742 56.7221 14.1019 58.3754 15.9867C62.5541 20.7501 61.4572 28.5454 55.9255 33.3981C50.3937 38.2507 42.5219 38.323 38.3432 33.5596C36.5202 31.4815 35.7013 28.8262 35.8167 26.0901C34.8418 33.3214 39.0801 40.4659 46.2498 42.8985C54.3931 45.6614 63.2343 41.2997 65.9973 33.1565C68.7602 25.0132 64.3986 16.1719 56.2553 13.409C54.8642 12.937 53.4527 12.673 52.0546 12.6002Z" fill="#6C91C9"/>
<path d="M28.1316 14.9223C26.753 19.3339 28.2466 23.8834 29.1656 25.6067C36.4035 25.262 39.5054 21.4708 39.8501 21.1262C45.02 14.9223 37.7821 13.199 37.0928 12.8543C31.9229 6.30574 28.1316 14.5776 28.1316 14.9223Z" fill="#B6C8E4" stroke="#B6C8E4" stroke-width="0.206796"/>
<path d="M45.8769 25.1618C44.9351 28.1496 45.9554 31.2309 46.5832 32.3981C51.5277 32.1646 53.6468 29.5969 53.8822 29.3635C57.414 25.1618 52.4695 23.9947 51.9986 23.7612C48.4669 19.3261 45.8769 24.9284 45.8769 25.1618Z" fill="#6C91C9" stroke="#6C91C9" stroke-width="0.206796"/>
<path d="M165.696 48.2417H161.837C161.766 47.7423 161.622 47.2988 161.405 46.911C161.187 46.5174 160.908 46.1825 160.568 45.9064C160.227 45.6303 159.833 45.4188 159.387 45.2719C158.946 45.1251 158.467 45.0516 157.95 45.0516C157.016 45.0516 156.203 45.2837 155.509 45.7478C154.816 46.206 154.279 46.8757 153.897 47.7569C153.515 48.6323 153.324 49.6957 153.324 50.9471C153.324 52.2337 153.515 53.3146 153.897 54.19C154.284 55.0653 154.825 55.7262 155.518 56.1728C156.211 56.6193 157.013 56.8425 157.924 56.8425C158.435 56.8425 158.908 56.7749 159.343 56.6398C159.783 56.5047 160.174 56.3079 160.514 56.0494C160.856 55.785 161.138 55.4649 161.361 55.0888C161.59 54.7129 161.748 54.284 161.837 53.8022L165.696 53.8199C165.597 54.6482 165.347 55.4472 164.947 56.2168C164.554 56.9805 164.022 57.665 163.352 58.2701C162.689 58.8693 161.895 59.3452 160.973 59.6977C160.057 60.0443 159.019 60.2177 157.862 60.2177C156.252 60.2177 154.813 59.8533 153.544 59.1249C152.281 58.3964 151.282 57.3419 150.548 55.9612C149.82 54.5807 149.455 52.9093 149.455 50.9471C149.455 48.979 149.825 47.3046 150.565 45.924C151.306 44.5434 152.31 43.4918 153.579 42.7692C154.848 42.0407 156.276 41.6765 157.862 41.6765C158.908 41.6765 159.878 41.8233 160.77 42.1171C161.669 42.4109 162.465 42.8397 163.159 43.4037C163.851 43.9618 164.415 44.6463 164.85 45.457C165.291 46.2677 165.573 47.1959 165.696 48.2417ZM170.733 60.2264C169.869 60.2264 169.1 60.0766 168.424 59.777C167.748 59.4715 167.214 59.0221 166.82 58.4287C166.432 57.8295 166.239 57.0834 166.239 56.1904C166.239 55.4384 166.376 54.8068 166.653 54.2957C166.929 53.7846 167.305 53.3734 167.781 53.062C168.257 52.7507 168.797 52.5157 169.403 52.357C170.013 52.1984 170.654 52.0868 171.324 52.0222C172.111 51.9399 172.745 51.8635 173.227 51.7931C173.709 51.7167 174.058 51.605 174.275 51.4582C174.493 51.3113 174.601 51.0939 174.601 50.806V50.7531C174.601 50.1951 174.426 49.7633 174.073 49.4578C173.726 49.1523 173.232 48.9995 172.592 48.9995C171.917 48.9995 171.38 49.1493 170.98 49.449C170.58 49.7427 170.316 50.1128 170.186 50.5593L166.714 50.2773C166.891 49.4548 167.237 48.744 167.754 48.1448C168.271 47.5396 168.938 47.0755 169.755 46.7524C170.577 46.4234 171.529 46.2589 172.61 46.2589C173.362 46.2589 174.082 46.347 174.769 46.5233C175.462 46.6995 176.076 46.9727 176.611 47.3428C177.151 47.7129 177.577 48.1888 177.889 48.7704C178.2 49.3461 178.355 50.0365 178.355 50.8413V59.9709H174.796V58.0939H174.69C174.473 58.5168 174.182 58.8899 173.817 59.213C173.453 59.5303 173.015 59.7799 172.504 59.9621C171.993 60.1383 171.403 60.2264 170.733 60.2264ZM171.808 57.6356C172.36 57.6356 172.848 57.5269 173.271 57.3095C173.694 57.0863 174.026 56.7867 174.266 56.4107C174.508 56.0347 174.628 55.6088 174.628 55.1329V53.6965C174.51 53.7729 174.349 53.8434 174.143 53.908C173.944 53.9668 173.718 54.0225 173.465 54.0754C173.212 54.1224 172.959 54.1665 172.707 54.2076C172.454 54.2428 172.225 54.2752 172.02 54.3045C171.579 54.3692 171.194 54.472 170.865 54.613C170.536 54.754 170.281 54.9449 170.099 55.1858C169.916 55.4207 169.825 55.7145 169.825 56.067C169.825 56.5781 170.011 56.9688 170.381 57.239C170.756 57.5035 171.232 57.6356 171.808 57.6356ZM179.779 59.9709V46.4351H183.419V48.7969H183.56C183.807 47.9567 184.221 47.3223 184.802 46.8934C185.384 46.4586 186.054 46.2413 186.811 46.2413C187 46.2413 187.202 46.253 187.419 46.2765C187.637 46.3 187.828 46.3323 187.992 46.3734V49.7045C187.816 49.6516 187.572 49.6046 187.261 49.5635C186.949 49.5224 186.665 49.5018 186.406 49.5018C185.854 49.5018 185.36 49.6222 184.925 49.8631C184.497 50.0982 184.156 50.4271 183.903 50.8501C183.656 51.2731 183.533 51.7607 183.533 52.3129V59.9709H179.779ZM193.983 60.2352C192.591 60.2352 191.392 59.9532 190.388 59.3892C189.389 58.8194 188.619 58.0145 188.078 56.9747C187.538 55.929 187.268 54.6923 187.268 53.2647C187.268 51.8723 187.538 50.6504 188.078 49.5987C188.619 48.5472 189.38 47.7276 190.361 47.1401C191.348 46.5526 192.505 46.2589 193.833 46.2589C194.726 46.2589 195.557 46.4028 196.327 46.6907C197.102 46.9727 197.778 47.3986 198.354 47.9685C198.935 48.5384 199.388 49.255 199.711 50.1187C200.034 50.9764 200.195 51.981 200.195 53.1325V54.1636H188.766V51.8371H196.662C196.662 51.2966 196.545 50.8178 196.309 50.4007C196.074 49.9836 195.748 49.6575 195.331 49.4225C194.92 49.1816 194.441 49.0612 193.895 49.0612C193.325 49.0612 192.819 49.1934 192.379 49.4578C191.944 49.7163 191.603 50.0658 191.357 50.5064C191.11 50.9412 190.984 51.4259 190.978 51.9605V54.1724C190.978 54.8421 191.101 55.4207 191.348 55.9084C191.601 56.396 191.956 56.772 192.414 57.0364C192.873 57.3007 193.416 57.4329 194.044 57.4329C194.461 57.4329 194.843 57.3742 195.19 57.2567C195.537 57.1391 195.833 56.963 196.08 56.728C196.327 56.4929 196.515 56.2051 196.644 55.8643L200.116 56.0934C199.94 56.9277 199.579 57.6561 199.032 58.2789C198.492 58.8957 197.793 59.3775 196.935 59.7241C196.083 60.0649 195.099 60.2352 193.983 60.2352Z" fill="#6C91C9"/>
<mask id="mask1_2_24" style="mask-type:luminance" maskUnits="userSpaceOnUse" x="148" y="41" width="53" height="20">
<path d="M200.592 41.3592H148.893V60.6602H200.592V41.3592Z" fill="white"/>
<path d="M165.696 48.2417H161.837C161.766 47.7423 161.622 47.2988 161.405 46.911C161.187 46.5174 160.908 46.1825 160.568 45.9064C160.227 45.6303 159.833 45.4188 159.387 45.2719C158.946 45.1251 158.467 45.0516 157.95 45.0516C157.016 45.0516 156.203 45.2837 155.509 45.7478C154.816 46.206 154.279 46.8757 153.897 47.7569C153.515 48.6323 153.324 49.6957 153.324 50.9471C153.324 52.2337 153.515 53.3146 153.897 54.19C154.284 55.0653 154.825 55.7262 155.518 56.1728C156.211 56.6193 157.013 56.8425 157.924 56.8425C158.435 56.8425 158.908 56.7749 159.343 56.6398C159.783 56.5047 160.174 56.3079 160.514 56.0494C160.856 55.785 161.138 55.4649 161.361 55.0888C161.59 54.7129 161.748 54.284 161.837 53.8022L165.696 53.8199C165.597 54.6482 165.347 55.4472 164.947 56.2168C164.554 56.9805 164.022 57.665 163.352 58.2701C162.689 58.8693 161.895 59.3452 160.973 59.6977C160.057 60.0443 159.019 60.2177 157.862 60.2177C156.252 60.2177 154.813 59.8533 153.544 59.1249C152.281 58.3964 151.282 57.3419 150.548 55.9612C149.82 54.5807 149.455 52.9093 149.455 50.9471C149.455 48.979 149.825 47.3046 150.565 45.924C151.306 44.5434 152.31 43.4918 153.579 42.7692C154.848 42.0407 156.276 41.6765 157.862 41.6765C158.908 41.6765 159.878 41.8233 160.77 42.1171C161.669 42.4109 162.465 42.8397 163.159 43.4037C163.851 43.9618 164.415 44.6463 164.85 45.457C165.291 46.2677 165.573 47.1959 165.696 48.2417ZM170.733 60.2264C169.869 60.2264 169.1 60.0766 168.424 59.777C167.748 59.4715 167.214 59.0221 166.82 58.4287C166.432 57.8295 166.239 57.0834 166.239 56.1904C166.239 55.4384 166.376 54.8068 166.653 54.2957C166.929 53.7846 167.305 53.3734 167.781 53.062C168.257 52.7507 168.797 52.5157 169.403 52.357C170.013 52.1984 170.654 52.0868 171.324 52.0222C172.111 51.9399 172.745 51.8635 173.227 51.7931C173.709 51.7167 174.058 51.605 174.275 51.4582C174.493 51.3113 174.601 51.0939 174.601 50.806V50.7531C174.601 50.1951 174.426 49.7633 174.073 49.4578C173.726 49.1523 173.232 48.9995 172.592 48.9995C171.917 48.9995 171.38 49.1493 170.98 49.449C170.58 49.7427 170.316 50.1128 170.186 50.5593L166.714 50.2773C166.891 49.4548 167.237 48.744 167.754 48.1448C168.271 47.5396 168.938 47.0755 169.755 46.7524C170.577 46.4234 171.529 46.2589 172.61 46.2589C173.362 46.2589 174.082 46.347 174.769 46.5233C175.462 46.6995 176.076 46.9727 176.611 47.3428C177.151 47.7129 177.577 48.1888 177.889 48.7704C178.2 49.3461 178.355 50.0365 178.355 50.8413V59.9709H174.796V58.0939H174.69C174.473 58.5168 174.182 58.8899 173.817 59.213C173.453 59.5303 173.015 59.7799 172.504 59.9621C171.993 60.1383 171.403 60.2264 170.733 60.2264ZM171.808 57.6356C172.36 57.6356 172.848 57.5269 173.271 57.3095C173.694 57.0863 174.026 56.7867 174.266 56.4107C174.508 56.0347 174.628 55.6088 174.628 55.1329V53.6965C174.51 53.7729 174.349 53.8434 174.143 53.908C173.944 53.9668 173.718 54.0225 173.465 54.0754C173.212 54.1224 172.959 54.1665 172.707 54.2076C172.454 54.2428 172.225 54.2752 172.02 54.3045C171.579 54.3692 171.194 54.472 170.865 54.613C170.536 54.754 170.281 54.9449 170.099 55.1858C169.916 55.4207 169.825 55.7145 169.825 56.067C169.825 56.5781 170.011 56.9688 170.381 57.239C170.756 57.5035 171.232 57.6356 171.808 57.6356ZM179.779 59.9709V46.4351H183.419V48.7969H183.56C183.807 47.9567 184.221 47.3223 184.802 46.8934C185.384 46.4586 186.054 46.2413 186.811 46.2413C187 46.2413 187.202 46.253 187.419 46.2765C187.637 46.3 187.828 46.3323 187.992 46.3734V49.7045C187.816 49.6516 187.572 49.6046 187.261 49.5635C186.949 49.5224 186.665 49.5018 186.406 49.5018C185.854 49.5018 185.36 49.6222 184.925 49.8631C184.497 50.0982 184.156 50.4271 183.903 50.8501C183.656 51.2731 183.533 51.7607 183.533 52.3129V59.9709H179.779ZM193.983 60.2352C192.591 60.2352 191.392 59.9532 190.388 59.3892C189.389 58.8194 188.619 58.0145 188.078 56.9747C187.538 55.929 187.268 54.6923 187.268 53.2647C187.268 51.8723 187.538 50.6504 188.078 49.5987C188.619 48.5472 189.38 47.7276 190.361 47.1401C191.348 46.5526 192.505 46.2589 193.833 46.2589C194.726 46.2589 195.557 46.4028 196.327 46.6907C197.102 46.9727 197.778 47.3986 198.354 47.9685C198.935 48.5384 199.388 49.255 199.711 50.1187C200.034 50.9764 200.195 51.981 200.195 53.1325V54.1636H188.766V51.8371H196.662C196.662 51.2966 196.545 50.8178 196.309 50.4007C196.074 49.9836 195.748 49.6575 195.331 49.4225C194.92 49.1816 194.441 49.0612 193.895 49.0612C193.325 49.0612 192.819 49.1934 192.379 49.4578C191.944 49.7163 191.603 50.0658 191.357 50.5064C191.11 50.9412 190.984 51.4259 190.978 51.9605V54.1724C190.978 54.8421 191.101 55.4207 191.348 55.9084C191.601 56.396 191.956 56.772 192.414 57.0364C192.873 57.3007 193.416 57.4329 194.044 57.4329C194.461 57.4329 194.843 57.3742 195.19 57.2567C195.537 57.1391 195.833 56.963 196.08 56.728C196.327 56.4929 196.515 56.2051 196.644 55.8643L200.116 56.0934C199.94 56.9277 199.579 57.6561 199.032 58.2789C198.492 58.8957 197.793 59.3775 196.935 59.7241C196.083 60.0649 195.099 60.2352 193.983 60.2352Z" fill="black"/>
</mask>
<g mask="url(#mask1_2_24)">
<path d="M165.696 48.2417V48.3106H165.774L165.765 48.2336L165.696 48.2417ZM161.837 48.2417L161.768 48.2513L161.777 48.3106H161.837V48.2417ZM159.387 45.2719L159.365 45.3373L159.365 45.3374L159.387 45.2719ZM155.509 45.7478L155.547 45.8053L155.548 45.8051L155.509 45.7478ZM159.343 56.6398L159.323 56.5739L159.322 56.574L159.343 56.6398ZM160.514 56.0494L160.557 56.1043L160.557 56.1039L160.514 56.0494ZM161.837 53.8022V53.7333L161.779 53.7331L161.769 53.7898L161.837 53.8022ZM165.696 53.8199L165.765 53.8281L165.774 53.7513L165.697 53.7509L165.696 53.8199ZM163.159 43.4037L163.115 43.4572L163.115 43.4574L163.159 43.4037ZM165.696 48.1727H161.837V48.3106H165.696V48.1727ZM161.905 48.232C161.833 47.7253 161.687 47.2734 161.465 46.8773L161.344 46.9443C161.557 47.3236 161.699 47.7593 161.768 48.2513L161.905 48.232ZM161.465 46.8773C161.244 46.4761 160.959 46.1347 160.611 45.8528L160.524 45.96C160.858 46.2303 161.131 46.5583 161.344 46.9443L161.465 46.8773ZM160.611 45.8528C160.264 45.5711 159.862 45.3557 159.408 45.2064L159.365 45.3374C159.804 45.4818 160.19 45.6895 160.524 45.96L160.611 45.8528ZM159.409 45.2065C158.96 45.057 158.474 44.9826 157.95 44.9826V45.1205C158.461 45.1205 158.932 45.193 159.365 45.3373L159.409 45.2065ZM157.95 44.9826C157.004 44.9826 156.177 45.2179 155.471 45.6905L155.548 45.8051C156.228 45.3494 157.028 45.1205 157.95 45.1205V44.9826ZM155.471 45.6903C154.766 46.157 154.22 46.838 153.834 47.7296L153.96 47.7845C154.337 46.9136 154.867 46.255 155.547 45.8053L155.471 45.6903ZM153.834 47.7296C153.447 48.6158 153.255 49.689 153.255 50.9471H153.393C153.393 49.7023 153.583 48.6489 153.96 47.7845L153.834 47.7296ZM153.255 50.9471C153.255 52.24 153.447 53.3311 153.834 54.2175L153.96 54.1625C153.583 53.2982 153.393 52.2273 153.393 50.9471H153.255ZM153.834 54.2175C154.226 55.1032 154.774 55.7758 155.481 56.2307L155.555 56.1148C154.875 55.6767 154.343 55.0275 153.96 54.1625L153.834 54.2175ZM155.481 56.2307C156.186 56.6851 157.002 56.9114 157.924 56.9114V56.7735C157.025 56.7735 156.237 56.5534 155.555 56.1148L155.481 56.2307ZM157.924 56.9114C158.441 56.9114 158.921 56.8431 159.363 56.7056L159.322 56.574C158.895 56.7068 158.429 56.7735 157.924 56.7735V56.9114ZM159.363 56.7056C159.811 56.5683 160.208 56.3681 160.557 56.1043L160.473 55.9945C160.139 56.2477 159.756 56.441 159.323 56.5739L159.363 56.7056ZM160.557 56.1039C160.905 55.8341 161.192 55.5074 161.42 55.1241L161.302 55.053C161.082 55.4216 160.806 55.7359 160.472 55.9949L160.557 56.1039ZM161.42 55.1247C161.653 54.7407 161.815 54.3038 161.904 53.8146L161.769 53.7898C161.682 54.2642 161.526 54.685 161.302 55.053L161.42 55.1247ZM161.837 53.8711L165.696 53.8888L165.697 53.7509L161.837 53.7333V53.8711ZM165.628 53.8116C165.529 54.6315 165.282 55.4225 164.886 56.1851L165.009 56.2485C165.411 55.472 165.664 54.665 165.765 53.8281L165.628 53.8116ZM164.886 56.1851C164.497 56.941 163.97 57.6191 163.306 58.219L163.399 58.3213C164.074 57.7109 164.611 57.02 165.009 56.2485L164.886 56.1851ZM163.306 58.219C162.649 58.812 161.863 59.2836 160.948 59.6333L160.998 59.7621C161.927 59.4069 162.728 58.9268 163.399 58.3213L163.306 58.219ZM160.948 59.6333C160.04 59.9765 159.012 60.1487 157.862 60.1487V60.2866C159.026 60.2866 160.072 60.1122 160.998 59.7621L160.948 59.6333ZM157.862 60.1487C156.263 60.1487 154.836 59.787 153.579 59.0651L153.51 59.1846C154.79 59.9197 156.241 60.2866 157.862 60.2866V60.1487ZM153.579 59.0651C152.327 58.3435 151.338 57.2989 150.609 55.9289L150.487 55.9934C151.227 57.3845 152.234 58.4492 153.51 59.1846L153.579 59.0651ZM150.609 55.9289C149.887 54.5604 149.524 52.9009 149.524 50.9471H149.386C149.386 52.9177 149.752 54.6007 150.487 55.9934L150.609 55.9289ZM149.524 50.9471C149.524 48.9875 149.893 47.3249 150.626 45.9566L150.505 45.8914C149.758 47.2843 149.386 48.9704 149.386 50.9471H149.524ZM150.626 45.9566C151.361 44.5866 152.356 43.5448 153.614 42.8291L153.545 42.7093C152.264 43.4388 151.251 44.5002 150.505 45.8914L150.626 45.9566ZM153.614 42.8291C154.872 42.1071 156.287 41.7454 157.862 41.7454V41.6075C156.265 41.6075 154.825 41.9744 153.545 42.7093L153.614 42.8291ZM157.862 41.7454C158.901 41.7454 159.864 41.8914 160.749 42.1825L160.792 42.0516C159.891 41.7553 158.915 41.6075 157.862 41.6075V41.7454ZM160.749 42.1825C161.64 42.4738 162.429 42.8988 163.115 43.4572L163.202 43.3502C162.502 42.7806 161.698 42.3478 160.792 42.0516L160.749 42.1825ZM163.115 43.4574C163.801 44.0095 164.359 44.6866 164.79 45.4896L164.911 45.4244C164.472 44.6058 163.902 43.9141 163.201 43.35L163.115 43.4574ZM164.79 45.4896C165.226 46.2916 165.505 47.2115 165.628 48.2497L165.765 48.2336C165.64 47.1803 165.356 46.2438 164.911 45.4244L164.79 45.4896ZM168.424 59.777L168.395 59.8398L168.396 59.84L168.424 59.777ZM166.82 58.4287L166.762 58.4662L166.763 58.4668L166.82 58.4287ZM171.324 52.0222L171.33 52.0908L171.331 52.0907L171.324 52.0222ZM173.227 51.793L173.237 51.8612L173.238 51.8611L173.227 51.793ZM174.073 49.4578L174.027 49.5095L174.028 49.5098L174.073 49.4578ZM170.98 49.4489L171.02 49.5045L171.021 49.5041L170.98 49.4489ZM170.186 50.5593L170.181 50.628L170.237 50.6326L170.252 50.5785L170.186 50.5593ZM166.714 50.2773L166.647 50.2628L166.631 50.3396L166.709 50.346L166.714 50.2773ZM174.769 46.5233L174.752 46.59L174.752 46.5901L174.769 46.5233ZM176.611 47.3428L176.572 47.3995L176.572 47.3997L176.611 47.3428ZM178.355 59.9709V60.0398H178.424V59.9709H178.355ZM174.796 59.9709H174.727V60.0398H174.796V59.9709ZM174.796 58.0939H174.865V58.0249H174.796V58.0939ZM174.69 58.0939V58.0249H174.648L174.628 58.0624L174.69 58.0939ZM173.817 59.213L173.862 59.265L173.863 59.2646L173.817 59.213ZM172.505 59.962L172.527 60.0273L172.527 60.027L172.505 59.962ZM173.271 57.3095L173.303 57.3709L173.303 57.3705L173.271 57.3095ZM174.628 53.6965H174.697V53.5695L174.59 53.6387L174.628 53.6965ZM174.143 53.908L174.163 53.9741L174.164 53.9737L174.143 53.908ZM173.465 54.0754L173.477 54.1432L173.479 54.1429L173.465 54.0754ZM172.707 54.2076L172.717 54.2759L172.718 54.2756L172.707 54.2076ZM170.381 57.239L170.34 57.2947L170.341 57.2954L170.381 57.239ZM170.733 60.1575C169.878 60.1575 169.118 60.0091 168.452 59.714L168.396 59.84C169.082 60.1442 169.862 60.2953 170.733 60.2953V60.1575ZM168.453 59.7142C167.788 59.4138 167.264 58.9727 166.878 58.3906L166.763 58.4668C167.164 59.0714 167.709 59.5292 168.395 59.8398L168.453 59.7142ZM166.878 58.3913C166.499 57.8057 166.308 57.0734 166.308 56.1904H166.17C166.17 57.0933 166.366 57.8533 166.762 58.4662L166.878 58.3913ZM166.308 56.1904C166.308 55.4466 166.444 54.827 166.714 54.3285L166.592 54.263C166.31 54.7867 166.17 55.4303 166.17 56.1904H166.308ZM166.714 54.3285C166.984 53.8272 167.353 53.4247 167.819 53.1197L167.743 53.0043C167.257 53.3221 166.873 53.742 166.592 54.263L166.714 54.3285ZM167.819 53.1197C168.288 52.8128 168.821 52.5806 169.42 52.4237L169.385 52.2903C168.774 52.4507 168.226 52.6885 167.743 53.0043L167.819 53.1197ZM169.42 52.4237C170.027 52.2661 170.663 52.1551 171.33 52.0908L171.317 51.9535C170.643 52.0185 170 52.1307 169.385 52.2903L169.42 52.4237ZM171.331 52.0907C172.118 52.0084 172.754 51.9319 173.237 51.8612L173.217 51.7248C172.737 51.7951 172.104 51.8713 171.317 51.9535L171.331 52.0907ZM173.238 51.8611C173.723 51.7843 174.084 51.6708 174.314 51.5153L174.237 51.401C174.032 51.5393 173.695 51.6491 173.216 51.7249L173.238 51.8611ZM174.314 51.5153C174.552 51.3542 174.67 51.1142 174.67 50.806H174.532C174.532 51.0736 174.433 51.2684 174.237 51.401L174.314 51.5153ZM174.67 50.806V50.7531H174.532V50.806H174.67ZM174.67 50.7531C174.67 50.1794 174.488 49.7268 174.118 49.4057L174.028 49.5098C174.362 49.7997 174.532 50.2107 174.532 50.7531H174.67ZM174.118 49.4057C173.755 49.0854 173.243 48.9306 172.592 48.9306V49.0684C173.223 49.0684 173.698 49.2187 174.027 49.5095L174.118 49.4057ZM172.592 48.9306C171.907 48.9306 171.353 49.0826 170.938 49.3938L171.021 49.5041C171.405 49.2161 171.926 49.0684 172.592 49.0684V48.9306ZM170.939 49.3934C170.528 49.6955 170.254 50.078 170.12 50.5401L170.252 50.5785C170.377 50.1476 170.632 49.7899 171.02 49.5045L170.939 49.3934ZM170.193 50.4906L166.72 50.2086L166.709 50.346L170.181 50.628L170.193 50.4906ZM166.782 50.2918C166.956 49.4798 167.297 48.7797 167.807 48.1898L167.702 48.0997C167.177 48.7082 166.826 49.4298 166.647 50.2628L166.782 50.2918ZM167.807 48.1898C168.316 47.5941 168.973 47.1359 169.78 46.8164L169.729 46.6883C168.903 47.0151 168.227 47.4851 167.702 48.0997L167.807 48.1898ZM169.78 46.8164C170.593 46.4914 171.536 46.3278 172.61 46.3278V46.19C171.522 46.19 170.561 46.3554 169.729 46.6883L169.78 46.8164ZM172.61 46.3278C173.357 46.3278 174.071 46.4153 174.752 46.59L174.786 46.4565C174.093 46.2787 173.368 46.19 172.61 46.19V46.3278ZM174.752 46.5901C175.438 46.7645 176.044 47.0345 176.572 47.3995L176.65 47.2861C176.108 46.9109 175.487 46.6345 174.786 46.4565L174.752 46.5901ZM176.572 47.3997C177.103 47.7635 177.521 48.231 177.828 48.8029L177.949 48.7378C177.633 48.1465 177.199 47.6625 176.65 47.2861L176.572 47.3997ZM177.828 48.8029C178.133 49.3665 178.287 50.0453 178.287 50.8413H178.424C178.424 50.0276 178.267 49.3258 177.949 48.7378L177.828 48.8029ZM178.287 50.8413V59.9709H178.424V50.8413H178.287ZM178.355 59.9019H174.796V60.0398H178.355V59.9019ZM174.865 59.9709V58.0939H174.727V59.9709H174.865ZM174.796 58.0249H174.69V58.1628H174.796V58.0249ZM174.628 58.0624C174.415 58.4775 174.129 58.8438 173.771 59.1615L173.863 59.2646C174.233 58.9359 174.53 58.5561 174.751 58.1254L174.628 58.0624ZM173.772 59.1611C173.415 59.4719 172.985 59.7175 172.481 59.8971L172.527 60.027C173.046 59.8423 173.491 59.5886 173.862 59.265L173.772 59.1611ZM172.482 59.8969C171.979 60.0701 171.397 60.1575 170.733 60.1575V60.2953C171.408 60.2953 172.007 60.2065 172.527 60.0273L172.482 59.8969ZM171.808 57.7045C172.369 57.7045 172.868 57.594 173.303 57.3709L173.239 57.2483C172.828 57.4598 172.351 57.5667 171.808 57.5667V57.7045ZM173.303 57.3705C173.736 57.1421 174.077 56.8346 174.325 56.4479L174.209 56.3735C173.975 56.7388 173.652 57.0305 173.239 57.2486L173.303 57.3705ZM174.325 56.4479C174.573 56.06 174.697 55.6211 174.697 55.1329H174.559C174.559 55.5965 174.442 56.0094 174.209 56.3735L174.325 56.4479ZM174.697 55.1329V53.6965H174.559V55.1329H174.697ZM174.59 53.6387C174.48 53.7103 174.325 53.7786 174.123 53.8422L174.164 53.9737C174.373 53.9082 174.541 53.8354 174.666 53.7543L174.59 53.6387ZM174.124 53.8418C173.927 53.9 173.702 53.9554 173.451 54.008L173.479 54.1429C173.733 54.0897 173.961 54.0335 174.163 53.9741L174.124 53.8418ZM173.452 54.0076C173.2 54.0546 172.948 54.0985 172.696 54.1396L172.718 54.2756C172.971 54.2344 173.224 54.1903 173.477 54.1432L173.452 54.0076ZM172.698 54.1394C172.445 54.1746 172.216 54.2069 172.01 54.2363L172.03 54.3728C172.235 54.3434 172.464 54.3111 172.716 54.2758L172.698 54.1394ZM172.01 54.2363C171.564 54.3016 171.173 54.4058 170.838 54.5496L170.892 54.6763C171.215 54.5382 171.593 54.4367 172.03 54.3728L172.01 54.2363ZM170.838 54.5496C170.5 54.6945 170.234 54.8922 170.044 55.1442L170.153 55.228C170.327 54.9984 170.572 54.8135 170.892 54.6763L170.838 54.5496ZM170.044 55.1436C169.851 55.3928 169.756 55.7022 169.756 56.067H169.894C169.894 55.7269 169.982 55.4488 170.153 55.228L170.044 55.1436ZM169.756 56.067C169.756 56.5972 169.95 57.0098 170.34 57.2947L170.421 57.1834C170.071 56.9277 169.894 56.5591 169.894 56.067H169.756ZM170.341 57.2954C170.731 57.5698 171.222 57.7045 171.808 57.7045V57.5667C171.243 57.5667 170.782 57.437 170.42 57.1826L170.341 57.2954ZM179.779 59.9709H179.71V60.0398H179.779V59.9709ZM179.779 46.4351V46.3662H179.71V46.4351H179.779ZM183.419 46.4351H183.487V46.3662H183.419V46.4351ZM183.419 48.7969H183.35V48.8658H183.419V48.7969ZM183.56 48.7969V48.8658H183.612L183.626 48.8163L183.56 48.7969ZM187.992 46.3734H188.061V46.3196L188.009 46.3065L187.992 46.3734ZM187.992 49.7045L187.972 49.7705L188.061 49.7971V49.7045H187.992ZM184.925 49.8631L184.958 49.9235L184.959 49.9234L184.925 49.8631ZM183.903 50.8501L183.845 50.8148L183.844 50.8154L183.903 50.8501ZM183.533 59.9709V60.0398H183.602V59.9709H183.533ZM179.848 59.9709V46.4351H179.71V59.9709H179.848ZM179.779 46.504H183.419V46.3662H179.779V46.504ZM183.35 46.4351V48.7969H183.487V46.4351H183.35ZM183.419 48.8658H183.56V48.7279H183.419V48.8658ZM183.626 48.8163C183.869 47.9875 184.276 47.367 184.843 46.9489L184.761 46.8379C184.165 47.2774 183.744 47.926 183.494 48.7774L183.626 48.8163ZM184.843 46.9489C185.413 46.5234 186.068 46.3102 186.811 46.3102V46.1723C186.039 46.1723 185.355 46.3941 184.761 46.8381L184.843 46.9489ZM186.811 46.3102C186.997 46.3102 187.197 46.3218 187.412 46.345L187.427 46.208C187.208 46.1843 187.002 46.1723 186.811 46.1723V46.3102ZM187.412 46.345C187.627 46.3683 187.815 46.4002 187.976 46.4403L188.009 46.3065C187.84 46.2645 187.647 46.2318 187.427 46.208L187.412 46.345ZM187.923 46.3734V49.7045H188.061V46.3734H187.923ZM188.012 49.6385C187.831 49.5841 187.583 49.5365 187.27 49.4951L187.252 49.6318C187.562 49.6728 187.801 49.7192 187.972 49.7705L188.012 49.6385ZM187.27 49.4951C186.956 49.4537 186.668 49.4329 186.406 49.4329V49.5707C186.661 49.5707 186.943 49.591 187.252 49.6318L187.27 49.4951ZM186.406 49.4329C185.844 49.4329 185.338 49.5557 184.892 49.8028L184.959 49.9234C185.382 49.6888 185.864 49.5707 186.406 49.5707V49.4329ZM184.892 49.8028C184.452 50.0438 184.103 50.3813 183.845 50.8148L183.962 50.8854C184.209 50.4729 184.541 50.1526 184.958 49.9235L184.892 49.8028ZM183.844 50.8154C183.59 51.2502 183.464 51.7501 183.464 52.3129H183.602C183.602 51.7713 183.723 51.296 183.963 50.8849L183.844 50.8154ZM183.464 52.3129V59.9709H183.602V52.3129H183.464ZM183.533 59.9019H179.779V60.0398H183.533V59.9019ZM190.388 59.3892L190.353 59.4491L190.354 59.4493L190.388 59.3892ZM196.327 46.6907L196.303 46.7552L196.303 46.7555L196.327 46.6907ZM198.354 47.9685L198.305 48.0174L198.306 48.0177L198.354 47.9685ZM200.195 54.1636V54.2325H200.264V54.1636H200.195ZM188.766 54.1636H188.697V54.2325H188.766V54.1636ZM188.766 51.8371V51.7682H188.697V51.8371H188.766ZM196.662 51.8371V51.906H196.731V51.8371H196.662ZM195.331 49.4225L195.296 49.482L195.298 49.4826L195.331 49.4225ZM190.978 51.9605L190.909 51.9597V51.9605H190.978ZM196.644 55.8643L196.649 55.7955L196.598 55.7922L196.58 55.8398L196.644 55.8643ZM200.116 56.0934L200.183 56.1077L200.2 56.0299L200.121 56.0247L200.116 56.0934ZM193.983 60.1663C192.6 60.1663 191.413 59.8863 190.421 59.3292L190.354 59.4493C191.371 60.0202 192.581 60.3042 193.983 60.3042V60.1663ZM190.421 59.3292C189.435 58.766 188.674 57.9712 188.14 56.9429L188.018 57.0063C188.564 58.0577 189.343 58.8726 190.353 59.4491L190.421 59.3292ZM188.14 56.9429C187.605 55.9088 187.337 54.6836 187.337 53.2647H187.199C187.199 54.701 187.471 55.949 188.018 57.0063L188.14 56.9429ZM187.337 53.2647C187.337 51.8814 187.605 50.6706 188.14 49.6302L188.017 49.5672C187.471 50.6302 187.199 51.8633 187.199 53.2647H187.337ZM188.14 49.6302C188.675 48.5897 189.427 47.7799 190.397 47.1993L190.325 47.0809C189.333 47.6752 188.564 48.5046 188.017 49.5672L188.14 49.6302ZM190.397 47.1993C191.371 46.6191 192.515 46.3278 193.833 46.3278V46.19C192.495 46.19 191.325 46.4861 190.325 47.0809L190.397 47.1993ZM193.833 46.3278C194.719 46.3278 195.542 46.4705 196.303 46.7552L196.351 46.6261C195.573 46.3352 194.734 46.19 193.833 46.19V46.3278ZM196.303 46.7555C197.07 47.0341 197.736 47.4547 198.305 48.0174L198.402 47.9195C197.819 47.3425 197.135 46.9112 196.35 46.6259L196.303 46.7555ZM198.306 48.0177C198.879 48.5796 199.326 49.2874 199.646 50.1428L199.775 50.0945C199.449 49.2227 198.992 48.4973 198.402 47.9195L198.306 48.0177ZM199.646 50.1428C199.966 50.9911 200.126 51.9873 200.126 53.1325H200.264C200.264 51.9748 200.102 50.9617 199.775 50.0945L199.646 50.1428ZM200.126 53.1325V54.1636H200.264V53.1325H200.126ZM200.195 54.0946H188.766V54.2325H200.195V54.0946ZM188.835 54.1636V51.8371H188.697V54.1636H188.835ZM188.766 51.906H196.662V51.7682H188.766V51.906ZM196.731 51.8371C196.731 51.2863 196.611 50.7955 196.369 50.3668L196.25 50.4345C196.478 50.84 196.593 51.3069 196.593 51.8371H196.731ZM196.369 50.3668C196.128 49.9388 195.793 49.6036 195.365 49.3624L195.298 49.4826C195.704 49.7114 196.021 50.0284 196.25 50.4345L196.369 50.3668ZM195.366 49.3631C194.943 49.1151 194.452 48.9923 193.895 48.9923V49.1301C194.43 49.1301 194.897 49.2481 195.296 49.482L195.366 49.3631ZM193.895 48.9923C193.314 48.9923 192.796 49.1272 192.344 49.3986L192.414 49.517C192.843 49.2597 193.336 49.1301 193.895 49.1301V48.9923ZM192.344 49.3986C191.899 49.6633 191.549 50.0216 191.297 50.4727L191.417 50.5404C191.658 50.1104 191.99 49.7693 192.414 49.517L192.344 49.3986ZM191.297 50.4727C191.044 50.9184 190.915 51.4143 190.909 51.9597L191.047 51.9612C191.053 51.4374 191.176 50.9643 191.417 50.5404L191.297 50.4727ZM190.909 51.9605V54.1724H191.047V51.9605H190.909ZM190.909 54.1724C190.909 54.8505 191.034 55.4403 191.286 55.9395L191.409 55.8773C191.169 55.4012 191.047 54.8337 191.047 54.1724H190.909ZM191.286 55.9395C191.545 56.4384 191.91 56.8249 192.38 57.0961L192.449 56.9767C192.003 56.7191 191.656 56.3537 191.409 55.8773L191.286 55.9395ZM192.38 57.0961C192.85 57.3675 193.406 57.5019 194.044 57.5019V57.364C193.425 57.364 192.895 57.2339 192.449 56.9767L192.38 57.0961ZM194.044 57.5019C194.468 57.5019 194.858 57.4422 195.212 57.322L195.168 57.1914C194.83 57.3062 194.455 57.364 194.044 57.364V57.5019ZM195.212 57.322C195.568 57.2015 195.873 57.0202 196.128 56.7779L196.032 56.678C195.794 56.9056 195.506 57.0769 195.168 57.1914L195.212 57.322ZM196.128 56.7779C196.383 56.5352 196.576 56.2385 196.709 55.8888L196.58 55.8398C196.454 56.1717 196.272 56.4507 196.032 56.678L196.128 56.7779ZM196.64 55.9331L200.112 56.1622L200.121 56.0247L196.649 55.7955L196.64 55.9331ZM200.049 56.0792C199.875 56.9022 199.519 57.6199 198.981 58.2334L199.084 58.3244C199.638 57.6925 200.005 56.9532 200.183 56.1077L200.049 56.0792ZM198.981 58.2334C198.448 58.8411 197.758 59.3171 196.909 59.6602L196.961 59.7881C197.827 59.438 198.536 58.9503 199.084 58.3244L198.981 58.2334ZM196.909 59.6602C196.067 59.9971 195.092 60.1663 193.983 60.1663V60.3042C195.106 60.3042 196.099 60.1327 196.961 59.7881L196.909 59.6602Z" fill="#6C91C9"/>
</g>
<path d="M75.2497 48.2524V12.1571H98.7259V17.6384H81.7886V27.4377H97.5092V32.919H81.7886V42.7712H98.8665V48.2524H75.2497ZM111.96 48.7811C109.257 48.7811 106.937 48.1878 104.998 47.0011C103.071 45.8144 101.585 44.1752 100.539 42.0838C99.5055 39.9806 98.9885 37.5601 98.9885 34.8224C98.9885 32.073 99.5172 29.6466 100.575 27.5434C101.632 25.4285 103.124 23.7835 105.051 22.6085C106.99 21.4218 109.281 20.8284 111.925 20.8284C114.122 20.8284 116.066 21.2338 117.759 22.0445C119.462 22.8435 120.819 23.9774 121.83 25.4461C122.84 26.9031 123.416 28.6068 123.557 30.5572H117.459C117.212 29.253 116.625 28.1662 115.696 27.2967C114.78 26.4154 113.552 25.9748 112.012 25.9748C110.708 25.9748 109.563 26.3273 108.576 27.0323C107.589 27.7256 106.819 28.7243 106.267 30.0285C105.727 31.3327 105.456 32.8955 105.456 34.7167C105.456 36.5614 105.727 38.1476 106.267 39.4753C106.807 40.7913 107.566 41.8077 108.541 42.5244C109.528 43.2294 110.685 43.5819 112.012 43.5819C112.953 43.5819 113.793 43.4056 114.533 43.0532C115.285 42.6889 115.914 42.1661 116.419 41.4845C116.924 40.8031 117.271 39.9747 117.459 38.9995H123.557C123.404 40.9147 122.84 42.6125 121.865 44.093C120.89 45.5617 119.562 46.7132 117.882 47.5475C116.201 48.37 114.228 48.7811 111.96 48.7811ZM130.213 12.1571V48.2524H123.833V12.1571H130.213ZM131.81 48.2524V21.1809H138.191V48.2524H131.81ZM135.019 17.3387C134.008 17.3387 133.138 17.0039 132.41 16.3341C131.682 15.6527 131.317 14.836 131.317 13.8843C131.317 12.9208 131.682 12.1043 132.41 11.4345C133.138 10.753 134.008 10.4122 135.019 10.4122C136.041 10.4122 136.91 10.753 137.627 11.4345C138.356 12.1043 138.72 12.9208 138.72 13.8843C138.72 14.836 138.356 15.6527 137.627 16.3341C136.91 17.0039 136.041 17.3387 135.019 17.3387ZM139.789 58.4042V21.1809H146.063V25.6576H146.433C146.762 24.9996 147.226 24.3005 147.825 23.5603C148.424 22.8083 149.235 22.1679 150.257 21.6391C151.28 21.0987 152.584 20.8284 154.17 20.8284C156.261 20.8284 158.147 21.3631 159.828 22.4323C161.52 23.4898 162.859 25.0584 163.846 27.1381C164.845 29.206 165.344 31.744 165.344 34.7519C165.344 37.7246 164.856 40.2508 163.881 42.3305C162.906 44.4102 161.578 45.9965 159.898 47.0892C158.218 48.1819 156.314 48.7283 154.188 48.7283C152.637 48.7283 151.35 48.4698 150.328 47.9528C149.305 47.4358 148.483 46.8131 147.861 46.0846C147.249 45.3443 146.774 44.6452 146.433 43.9873H146.168V58.4042H139.789ZM146.045 34.7167C146.045 36.4674 146.292 38.0007 146.785 39.3167C147.291 40.6327 148.013 41.6608 148.953 42.4011C149.905 43.1295 151.056 43.4938 152.407 43.4938C153.818 43.4938 154.999 43.1177 155.95 42.3658C156.902 41.6021 157.619 40.5622 158.1 39.2462C158.594 37.9185 158.841 36.4087 158.841 34.7167C158.841 33.0364 158.6 31.5443 158.118 30.24C157.637 28.9358 156.92 27.9135 155.968 27.1733C155.016 26.4331 153.829 26.063 152.407 26.063C151.045 26.063 149.887 26.4213 148.936 27.1381C147.984 27.8548 147.262 28.8594 146.768 30.1519C146.286 31.4444 146.045 32.966 146.045 34.7167ZM187.241 28.3366L181.425 28.971C181.26 28.3835 180.973 27.8313 180.561 27.3143C180.162 26.7973 179.621 26.3802 178.94 26.063C178.258 25.7457 177.424 25.5871 176.437 25.5871C175.109 25.5871 173.993 25.8749 173.088 26.4507C172.196 27.0265 171.755 27.7726 171.767 28.689C171.755 29.4763 172.043 30.1166 172.63 30.6101C173.23 31.1036 174.217 31.509 175.591 31.8263L180.209 32.8132C182.771 33.3654 184.674 34.2408 185.919 35.4393C187.177 36.6378 187.811 38.2063 187.823 40.145C187.811 41.8488 187.312 43.3527 186.325 44.657C185.349 45.9495 183.992 46.9599 182.254 47.6884C180.514 48.4169 178.517 48.7811 176.261 48.7811C172.948 48.7811 170.28 48.0879 168.259 46.7015C166.239 45.3032 165.034 43.3587 164.646 40.8677L170.868 40.2684C171.15 41.4904 171.749 42.4128 172.666 43.0355C173.582 43.6582 174.774 43.9696 176.243 43.9696C177.759 43.9696 178.975 43.6582 179.891 43.0355C180.82 42.4128 181.284 41.6431 181.284 40.7267C181.284 39.9512 180.985 39.3108 180.385 38.8056C179.798 38.3004 178.881 37.9126 177.636 37.6424L173.018 36.673C170.421 36.1325 168.5 35.2219 167.255 33.9412C166.009 32.6487 165.392 31.0155 165.404 29.0415C165.392 27.373 165.845 25.9278 166.761 24.7059C167.69 23.4721 168.976 22.5204 170.621 21.8507C172.278 21.1692 174.187 20.8284 176.349 20.8284C179.522 20.8284 182.018 21.504 183.84 22.8552C185.673 24.2065 186.807 26.0336 187.241 28.3366ZM200.106 48.7811C197.391 48.7811 195.047 48.2172 193.073 47.0892C191.111 45.9495 189.601 44.3398 188.544 42.26C187.486 40.1686 186.957 37.707 186.957 34.8753C186.957 32.0906 187.486 29.6466 188.544 27.5434C189.613 25.4285 191.105 23.7835 193.02 22.6085C194.936 21.4218 197.186 20.8284 199.771 20.8284C201.439 20.8284 203.013 21.0987 204.494 21.6391C205.986 22.1679 207.302 22.9904 208.442 24.1066C209.593 25.2228 210.498 26.6446 211.156 28.3718C211.814 30.0872 212.143 32.1317 212.143 34.5052V36.4615H189.953V32.1611H206.028C206.015 30.9391 205.751 29.8523 205.234 28.9005C204.717 27.937 203.995 27.1792 203.066 26.6269C202.15 26.0747 201.08 25.7986 199.859 25.7986C198.555 25.7986 197.409 26.1159 196.422 26.7503C195.435 27.373 194.665 28.1955 194.113 29.2178C193.572 30.2283 193.296 31.3386 193.285 32.5489V36.3029C193.285 37.8774 193.572 39.2286 194.148 40.3566C194.724 41.4728 195.528 42.3305 196.562 42.9298C197.596 43.5173 198.807 43.811 200.193 43.811C201.122 43.811 201.962 43.6817 202.714 43.4232C203.466 43.153 204.118 42.7594 204.67 42.2424C205.222 41.7254 205.639 41.0851 205.921 40.3213L211.878 40.9911C211.503 42.5655 210.786 43.9402 209.728 45.1153C208.683 46.2785 207.343 47.1832 205.71 47.8295C204.077 48.4639 202.209 48.7811 200.106 48.7811Z" fill="#6C91C9" fill-opacity="0.5"/>
<mask id="mask2_2_24" style="mask-type:luminance" maskUnits="userSpaceOnUse" x="74" y="9" width="139" height="51">
<path d="M213 9.6505H74.4466V59.2816H213V9.6505Z" fill="white"/>
<path d="M75.2497 48.2524V12.1571H98.7258V17.6384H81.7886V27.4377H97.5092V32.919H81.7886V42.7712H98.8665V48.2524H75.2497ZM111.96 48.7811C109.257 48.7811 106.937 48.1878 104.998 47.0011C103.071 45.8144 101.585 44.1752 100.539 42.0838C99.5055 39.9806 98.9885 37.5601 98.9885 34.8224C98.9885 32.073 99.5172 29.6466 100.575 27.5434C101.632 25.4285 103.124 23.7835 105.051 22.6085C106.99 21.4218 109.281 20.8284 111.925 20.8284C114.122 20.8284 116.066 21.2338 117.759 22.0445C119.462 22.8435 120.819 23.9774 121.83 25.4461C122.84 26.9031 123.416 28.6068 123.557 30.5572H117.459C117.212 29.253 116.625 28.1662 115.696 27.2967C114.78 26.4154 113.552 25.9748 112.012 25.9748C110.708 25.9748 109.563 26.3273 108.576 27.0323C107.589 27.7256 106.819 28.7243 106.267 30.0285C105.727 31.3327 105.456 32.8955 105.456 34.7167C105.456 36.5614 105.727 38.1476 106.267 39.4753C106.807 40.7913 107.566 41.8077 108.541 42.5244C109.527 43.2294 110.685 43.5819 112.012 43.5819C112.953 43.5819 113.793 43.4056 114.533 43.0532C115.285 42.6889 115.914 42.1661 116.419 41.4845C116.924 40.8031 117.271 39.9747 117.459 38.9995H123.557C123.404 40.9147 122.84 42.6125 121.865 44.093C120.89 45.5617 119.562 46.7132 117.882 47.5475C116.201 48.37 114.228 48.7811 111.96 48.7811ZM130.213 12.1571V48.2524H123.833V12.1571H130.213ZM131.81 48.2524V21.1809H138.191V48.2524H131.81ZM135.019 17.3387C134.008 17.3387 133.138 17.0039 132.41 16.3341C131.682 15.6527 131.317 14.836 131.317 13.8843C131.317 12.9208 131.682 12.1043 132.41 11.4345C133.138 10.753 134.008 10.4122 135.019 10.4122C136.041 10.4122 136.91 10.753 137.627 11.4345C138.356 12.1043 138.72 12.9208 138.72 13.8843C138.72 14.836 138.356 15.6527 137.627 16.3341C136.91 17.0039 136.041 17.3387 135.019 17.3387ZM139.789 58.4042V21.1809H146.063V25.6576H146.433C146.762 24.9996 147.226 24.3005 147.825 23.5603C148.424 22.8083 149.235 22.1679 150.257 21.6391C151.28 21.0987 152.584 20.8284 154.17 20.8284C156.261 20.8284 158.147 21.3631 159.828 22.4323C161.519 23.4898 162.859 25.0584 163.846 27.1381C164.845 29.206 165.344 31.744 165.344 34.7519C165.344 37.7246 164.856 40.2508 163.881 42.3305C162.906 44.4102 161.578 45.9965 159.898 47.0892C158.218 48.1819 156.314 48.7283 154.188 48.7283C152.637 48.7283 151.35 48.4698 150.328 47.9528C149.305 47.4358 148.483 46.8131 147.861 46.0846C147.249 45.3443 146.774 44.6452 146.433 43.9873H146.168V58.4042H139.789ZM146.045 34.7167C146.045 36.4674 146.292 38.0007 146.785 39.3167C147.291 40.6327 148.013 41.6608 148.953 42.4011C149.905 43.1295 151.056 43.4938 152.407 43.4938C153.818 43.4938 154.999 43.1177 155.95 42.3658C156.902 41.6021 157.619 40.5622 158.1 39.2462C158.594 37.9185 158.841 36.4087 158.841 34.7167C158.841 33.0364 158.6 31.5443 158.118 30.24C157.637 28.9358 156.92 27.9135 155.968 27.1733C155.016 26.4331 153.829 26.063 152.407 26.063C151.045 26.063 149.887 26.4213 148.936 27.1381C147.984 27.8548 147.262 28.8594 146.768 30.1519C146.286 31.4444 146.045 32.966 146.045 34.7167ZM187.241 28.3366L181.425 28.971C181.26 28.3835 180.973 27.8313 180.561 27.3143C180.162 26.7973 179.621 26.3802 178.94 26.063C178.258 25.7457 177.424 25.5871 176.437 25.5871C175.109 25.5871 173.993 25.8749 173.088 26.4507C172.196 27.0265 171.755 27.7726 171.767 28.689C171.755 29.4763 172.043 30.1166 172.63 30.6101C173.23 31.1036 174.217 31.509 175.591 31.8263L180.209 32.8132C182.771 33.3654 184.674 34.2408 185.919 35.4393C187.177 36.6378 187.811 38.2063 187.823 40.145C187.811 41.8488 187.312 43.3527 186.325 44.657C185.349 45.9495 183.992 46.9599 182.254 47.6884C180.514 48.4169 178.517 48.7811 176.261 48.7811C172.948 48.7811 170.28 48.0879 168.259 46.7015C166.239 45.3032 165.034 43.3587 164.646 40.8677L170.868 40.2684C171.15 41.4904 171.749 42.4128 172.666 43.0355C173.582 43.6582 174.774 43.9696 176.243 43.9696C177.759 43.9696 178.975 43.6582 179.891 43.0355C180.82 42.4128 181.284 41.6431 181.284 40.7267C181.284 39.9512 180.985 39.3108 180.385 38.8056C179.798 38.3004 178.881 37.9126 177.636 37.6424L173.018 36.673C170.421 36.1325 168.5 35.2219 167.255 33.9412C166.009 32.6487 165.392 31.0155 165.404 29.0415C165.392 27.373 165.845 25.9278 166.761 24.7059C167.69 23.4721 168.976 22.5204 170.621 21.8507C172.278 21.1692 174.187 20.8284 176.349 20.8284C179.522 20.8284 182.018 21.504 183.84 22.8552C185.673 24.2065 186.807 26.0336 187.241 28.3366ZM200.106 48.7811C197.391 48.7811 195.047 48.2172 193.073 47.0892C191.111 45.9495 189.601 44.3398 188.544 42.26C187.486 40.1686 186.957 37.707 186.957 34.8753C186.957 32.0906 187.486 29.6466 188.544 27.5434C189.613 25.4285 191.105 23.7835 193.02 22.6085C194.936 21.4218 197.186 20.8284 199.771 20.8284C201.439 20.8284 203.013 21.0987 204.494 21.6391C205.986 22.1679 207.302 22.9904 208.442 24.1066C209.593 25.2228 210.498 26.6446 211.156 28.3718C211.814 30.0872 212.143 32.1317 212.143 34.5052V36.4615H189.953V32.1611H206.028C206.015 30.9391 205.751 29.8523 205.234 28.9005C204.717 27.937 203.995 27.1792 203.066 26.6269C202.15 26.0747 201.08 25.7986 199.859 25.7986C198.555 25.7986 197.409 26.1159 196.422 26.7503C195.435 27.373 194.665 28.1955 194.113 29.2178C193.572 30.2283 193.296 31.3386 193.285 32.5489V36.3029C193.285 37.8774 193.572 39.2286 194.148 40.3566C194.724 41.4728 195.528 42.3305 196.562 42.9298C197.596 43.5173 198.807 43.811 200.193 43.811C201.122 43.811 201.962 43.6817 202.714 43.4232C203.466 43.153 204.118 42.7594 204.67 42.2424C205.222 41.7254 205.639 41.0851 205.921 40.3213L211.878 40.9911C211.503 42.5655 210.786 43.9402 209.728 45.1153C208.683 46.2785 207.343 47.1832 205.71 47.8295C204.077 48.4639 202.209 48.7811 200.106 48.7811Z" fill="black"/>
</mask>
<g mask="url(#mask2_2_24)">
<path d="M75.2497 48.2524H74.905V48.5971H75.2497V48.2524ZM75.2497 12.1571V11.8125H74.905V12.1571H75.2497ZM98.7258 12.1571H99.0705V11.8125H98.7258V12.1571ZM98.7258 17.6384V17.9831H99.0705V17.6384H98.7258ZM81.7886 17.6384V17.2937H81.4439V17.6384H81.7886ZM81.7886 27.4377H81.4439V27.7824H81.7886V27.4377ZM97.5092 27.4377H97.8539V27.0931H97.5092V27.4377ZM97.5092 32.919V33.2636H97.8539V32.919H97.5092ZM81.7886 32.919V32.5743H81.4439V32.919H81.7886ZM81.7886 42.7712H81.4439V43.1158H81.7886V42.7712ZM98.8665 42.7712H99.2111V42.4265H98.8665V42.7712ZM98.8665 48.2524V48.5971H99.2111V48.2524H98.8665ZM75.5943 48.2524V12.1571H74.905V48.2524H75.5943ZM75.2497 12.5018H98.7258V11.8125H75.2497V12.5018ZM98.3812 12.1571V17.6384H99.0705V12.1571H98.3812ZM98.7258 17.2937H81.7886V17.9831H98.7258V17.2937ZM81.4439 17.6384V27.4377H82.1332V17.6384H81.4439ZM81.7886 27.7824H97.5092V27.0931H81.7886V27.7824ZM97.1645 27.4377V32.919H97.8539V27.4377H97.1645ZM97.5092 32.5743H81.7886V33.2636H97.5092V32.5743ZM81.4439 32.919V42.7712H82.1332V32.919H81.4439ZM81.7886 43.1158H98.8665V42.4265H81.7886V43.1158ZM98.5218 42.7712V48.2524H99.2111V42.7712H98.5218ZM98.8665 47.9078H75.2497V48.5971H98.8665V47.9078ZM104.998 47.0011L104.817 47.2945L104.818 47.295L104.998 47.0011ZM100.539 42.0838L100.23 42.2358L100.231 42.2379L100.539 42.0838ZM100.575 27.5435L100.882 27.6983L100.883 27.6976L100.575 27.5435ZM105.051 22.6085L105.23 22.9028L105.231 22.9025L105.051 22.6085ZM117.759 22.0445L117.61 22.3554L117.612 22.3566L117.759 22.0445ZM121.83 25.4461L121.546 25.6415L121.546 25.6425L121.83 25.4461ZM123.557 30.5572V30.9019H123.927L123.901 30.5324L123.557 30.5572ZM117.459 30.5572L117.12 30.6213L117.173 30.9019H117.459V30.5572ZM115.696 27.2967L115.458 27.5452L115.46 27.5482L115.696 27.2967ZM108.576 27.0323L108.774 27.3144L108.776 27.3128L108.576 27.0323ZM106.267 30.0285L105.95 29.8941L105.949 29.8966L106.267 30.0285ZM106.267 39.4753L105.948 39.6053L105.949 39.6063L106.267 39.4753ZM108.541 42.5244L108.336 42.8022L108.34 42.8049L108.541 42.5244ZM114.533 43.0532L114.682 43.3643L114.684 43.3634L114.533 43.0532ZM117.459 38.9995V38.6548H117.174L117.12 38.9343L117.459 38.9995ZM123.557 38.9995L123.901 39.0269L123.93 38.6548H123.557V38.9995ZM121.865 44.093L122.152 44.2837L122.153 44.2826L121.865 44.093ZM117.882 47.5475L118.033 47.857L118.035 47.8561L117.882 47.5475ZM111.96 48.4365C109.309 48.4365 107.054 47.8549 105.178 46.7071L104.818 47.295C106.821 48.5207 109.206 49.1258 111.96 49.1258V48.4365ZM105.179 46.7076C103.308 45.5557 101.866 43.9657 100.848 41.9296L100.231 42.2379C101.305 44.3848 102.834 46.073 104.817 47.2945L105.179 46.7076ZM100.848 41.9317C99.8412 39.8832 99.3331 37.5163 99.3331 34.8224H98.6438C98.6438 37.604 99.1691 40.078 100.23 42.2358L100.848 41.9317ZM99.3331 34.8224C99.3331 32.1177 99.8529 29.746 100.882 27.6983L100.266 27.3886C99.1808 29.5473 98.6438 32.0282 98.6438 34.8224H99.3331ZM100.883 27.6976C101.913 25.6376 103.362 24.0425 105.23 22.9028L104.872 22.3143C102.887 23.5246 101.351 25.2193 100.266 27.3893L100.883 27.6976ZM105.231 22.9025C107.107 21.754 109.334 21.1731 111.925 21.1731V20.4838C109.228 20.4838 106.872 21.0896 104.871 22.3145L105.231 22.9025ZM111.925 21.1731C114.079 21.1731 115.971 21.5704 117.61 22.3554L117.908 21.7337C116.162 20.8972 114.165 20.4838 111.925 20.4838V21.1731ZM117.612 22.3566C119.263 23.1311 120.572 24.226 121.546 25.6415L122.114 25.2508C121.067 23.7288 119.661 22.5559 117.905 21.7325L117.612 22.3566ZM121.546 25.6425C122.518 27.0436 123.076 28.6867 123.213 30.5821L123.901 30.5324C123.756 28.5269 123.162 26.7625 122.113 25.2497L121.546 25.6425ZM123.557 30.2126H117.459V30.9019H123.557V30.2126ZM117.797 30.4932C117.538 29.1205 116.916 27.9669 115.932 27.0451L115.46 27.5482C116.333 28.3655 116.887 29.3856 117.12 30.6213L117.797 30.4932ZM115.935 27.0482C114.941 26.0928 113.621 25.6302 112.012 25.6302V26.3195C113.483 26.3195 114.618 26.7383 115.458 27.5452L115.935 27.0482ZM112.012 25.6302C110.642 25.6302 109.425 26.0019 108.376 26.7518L108.776 27.3128C109.701 26.6528 110.774 26.3195 112.012 26.3195V25.6302ZM108.378 26.7503C107.329 27.4867 106.523 28.541 105.95 29.8941L106.585 30.1629C107.116 28.9076 107.848 27.9645 108.774 27.3144L108.378 26.7503ZM105.949 29.8966C105.387 31.2528 105.112 32.8627 105.112 34.7167H105.801C105.801 32.9282 106.066 31.4127 106.585 30.1605L105.949 29.8966ZM105.112 34.7167C105.112 36.5937 105.387 38.2263 105.948 39.6053L106.586 39.3454C106.066 38.0689 105.801 36.5291 105.801 34.7167H105.112ZM105.949 39.6063C106.508 40.9704 107.302 42.0419 108.336 42.8022L108.745 42.2467C107.829 41.5735 107.107 40.6123 106.586 39.3444L105.949 39.6063ZM108.34 42.8049C109.392 43.5556 110.62 43.9265 112.012 43.9265V43.2372C110.75 43.2372 109.664 42.9032 108.741 42.244L108.34 42.8049ZM112.012 43.9265C112.997 43.9265 113.888 43.7419 114.682 43.3643L114.385 42.742C113.697 43.0694 112.909 43.2372 112.012 43.2372V43.9265ZM114.684 43.3634C115.486 42.9744 116.158 42.4153 116.696 41.6898L116.142 41.2793C115.669 41.9168 115.084 42.4033 114.383 42.743L114.684 43.3634ZM116.696 41.6898C117.237 40.9603 117.601 40.0821 117.797 39.0647L117.12 38.9343C116.94 39.8674 116.612 40.6458 116.142 41.2793L116.696 41.6898ZM117.459 39.3441H123.557V38.6548H117.459V39.3441ZM123.213 38.9721C123.065 40.8344 122.518 42.4754 121.578 43.9034L122.153 44.2826C123.163 42.7497 123.743 40.995 123.901 39.0269L123.213 38.9721ZM121.578 43.9023C120.638 45.3174 119.358 46.4297 117.728 47.2387L118.035 47.8561C119.766 46.9968 121.141 45.806 122.152 44.2837L121.578 43.9023ZM117.73 47.2379C116.106 48.0329 114.186 48.4365 111.96 48.4365V49.1258C114.269 49.1258 116.297 48.707 118.033 47.857L117.73 47.2379ZM130.213 12.1571H130.557V11.8125H130.213V12.1571ZM130.213 48.2524V48.5971H130.557V48.2524H130.213ZM123.833 48.2524H123.488V48.5971H123.833V48.2524ZM123.833 12.1571V11.8125H123.488V12.1571H123.833ZM129.868 12.1571V48.2524H130.557V12.1571H129.868ZM130.213 47.9078H123.833V48.5971H130.213V47.9078ZM124.178 48.2524V12.1571H123.488V48.2524H124.178ZM123.833 12.5018H130.213V11.8125H123.833V12.5018ZM131.81 48.2524H131.466V48.5971H131.81V48.2524ZM131.81 21.181V20.8363H131.466V21.181H131.81ZM138.191 21.181H138.535V20.8363H138.191V21.181ZM138.191 48.2524V48.5971H138.535V48.2524H138.191ZM132.41 16.3341L132.174 16.5859L132.176 16.5879L132.41 16.3341ZM132.41 11.4345L132.643 11.6883L132.645 11.6862L132.41 11.4345ZM137.627 11.4345L137.389 11.6843L137.393 11.6882L137.627 11.4345ZM132.155 48.2524V21.181H131.466V48.2524H132.155ZM131.81 21.5256H138.191V20.8363H131.81V21.5256ZM137.846 21.181V48.2524H138.535V21.181H137.846ZM138.191 47.9078H131.81V48.5971H138.191V47.9078ZM135.019 16.9941C134.092 16.9941 133.306 16.6903 132.643 16.0804L132.176 16.5879C132.97 17.3175 133.923 17.6834 135.019 17.6834V16.9941ZM132.645 16.0825C131.983 15.4626 131.662 14.7356 131.662 13.8843H130.972C130.972 14.9365 131.38 15.8427 132.174 16.5859L132.645 16.0825ZM131.662 13.8843C131.662 13.0202 131.983 12.2948 132.643 11.6883L132.176 11.1808C131.379 11.9137 130.972 12.8215 130.972 13.8843H131.662ZM132.645 11.6862C133.309 11.0653 134.094 10.7569 135.019 10.7569V10.0676C133.922 10.0676 132.968 10.4407 132.174 11.1828L132.645 11.6862ZM135.019 10.7569C135.955 10.7569 136.739 11.066 137.389 11.6843L137.864 11.1847C137.081 10.4401 136.126 10.0676 135.019 10.0676V10.7569ZM137.393 11.6882C138.053 12.2947 138.375 13.0202 138.375 13.8843H139.064C139.064 12.8215 138.657 11.9137 137.86 11.1808L137.393 11.6882ZM138.375 13.8843C138.375 14.7356 138.054 15.4626 137.391 16.0825L137.862 16.5859C138.657 15.8428 139.064 14.9365 139.064 13.8843H138.375ZM137.391 16.0825C136.741 16.6898 135.957 16.9941 135.019 16.9941V17.6834C136.124 17.6834 137.078 17.3181 137.862 16.5859L137.391 16.0825ZM139.789 58.4043H139.444V58.7489H139.789V58.4043ZM139.789 21.181V20.8363H139.444V21.181H139.789ZM146.063 21.181H146.408V20.8363H146.063V21.181ZM146.063 25.6576H145.718V26.0023H146.063V25.6576ZM146.433 25.6576V26.0023H146.646L146.741 25.8117L146.433 25.6576ZM147.825 23.5603L148.093 23.7771L148.095 23.7751L147.825 23.5603ZM150.257 21.6391L150.416 21.9453L150.419 21.9439L150.257 21.6391ZM159.828 22.4323L159.642 22.7231L159.645 22.7246L159.828 22.4323ZM163.846 27.1381L163.534 27.2859L163.536 27.288L163.846 27.1381ZM147.861 46.0846L147.595 46.304L147.599 46.3085L147.861 46.0846ZM146.433 43.9873L146.739 43.8288L146.643 43.6426H146.433V43.9873ZM146.168 43.9873V43.6426H145.824V43.9873H146.168ZM146.168 58.4043V58.7489H146.513V58.4043H146.168ZM146.785 39.3167L146.463 39.4377L146.463 39.4402L146.785 39.3167ZM148.953 42.4011L148.74 42.6718L148.744 42.6747L148.953 42.4011ZM155.95 42.3658L156.164 42.6363L156.166 42.6346L155.95 42.3658ZM158.1 39.2463L157.777 39.1262L157.776 39.1278L158.1 39.2463ZM146.768 30.1519L146.445 30.0289L146.445 30.0315L146.768 30.1519ZM140.133 58.4043V21.181H139.444V58.4043H140.133ZM139.789 21.5256H146.063V20.8363H139.789V21.5256ZM145.718 21.181V25.6576H146.408V21.181H145.718ZM146.063 26.0023H146.433V25.313H146.063V26.0023ZM146.741 25.8117C147.056 25.1815 147.506 24.5033 148.093 23.7771L147.557 23.3434C146.947 24.0977 146.467 24.8177 146.125 25.5035L146.741 25.8117ZM148.095 23.7751C148.658 23.0677 149.428 22.4561 150.416 21.9453L150.099 21.333C149.042 21.8797 148.191 22.5488 147.556 23.3455L148.095 23.7751ZM150.419 21.9439C151.376 21.4375 152.62 21.1731 154.17 21.1731V20.4838C152.547 20.4838 151.183 20.7599 150.096 21.3345L150.419 21.9439ZM154.17 21.1731C156.199 21.1731 158.02 21.6909 159.642 22.7231L160.013 22.1415C158.274 21.0353 156.323 20.4838 154.17 20.4838V21.1731ZM159.645 22.7246C161.273 23.7421 162.571 25.2562 163.534 27.2859L164.158 26.9903C163.147 24.8605 161.766 23.2375 160.011 22.14L159.645 22.7246ZM163.536 27.288C164.506 29.297 164.999 31.7805 164.999 34.752H165.689C165.689 31.7075 165.184 29.115 164.156 26.9882L163.536 27.288ZM164.999 34.752C164.999 37.6884 164.517 40.1617 163.57 42.1842L164.193 42.4769C165.196 40.34 165.689 37.7609 165.689 34.752H164.999ZM163.57 42.1842C162.618 44.2145 161.329 45.7474 159.71 46.8002L160.086 47.3782C161.828 46.2455 163.195 44.6061 164.193 42.4769L163.57 42.1842ZM159.71 46.8002C158.089 47.8544 156.252 48.3836 154.188 48.3836V49.0729C156.377 49.0729 158.347 48.5095 160.086 47.3782L159.71 46.8002ZM154.188 48.3836C152.673 48.3836 151.444 48.1308 150.483 47.6453L150.173 48.2604C151.257 48.8088 152.601 49.0729 154.188 49.0729V48.3836ZM150.483 47.6453C149.494 47.1449 148.711 46.5484 148.123 45.8606L147.599 46.3085C148.256 47.0778 149.117 47.7268 150.173 48.2604L150.483 47.6453ZM148.126 45.8652C147.526 45.1386 147.066 44.4598 146.739 43.8288L146.127 44.1457C146.481 44.8306 146.973 45.5502 147.595 46.304L148.126 45.8652ZM146.433 43.6426H146.168V44.3319H146.433V43.6426ZM145.824 43.9873V58.4043H146.513V43.9873H145.824ZM146.168 58.0596H139.789V58.7489H146.168V58.0596ZM145.7 34.7167C145.7 36.499 145.952 38.0749 146.463 39.4377L147.108 39.1957C146.632 37.9266 146.39 36.4358 146.39 34.7167H145.7ZM146.463 39.4402C146.987 40.8038 147.743 41.8868 148.74 42.6718L149.166 42.1302C148.283 41.4348 147.594 40.4617 147.107 39.1932L146.463 39.4402ZM148.744 42.6747C149.763 43.455 150.991 43.8384 152.407 43.8384V43.1491C151.122 43.1491 150.046 42.804 149.163 42.1273L148.744 42.6747ZM152.407 43.8384C153.882 43.8384 155.142 43.4439 156.164 42.6363L155.737 42.0954C154.855 42.7917 153.753 43.1491 152.407 43.1491V43.8384ZM156.166 42.6346C157.173 41.826 157.924 40.7308 158.424 39.3647L157.776 39.1278C157.313 40.3936 156.63 41.3781 155.735 42.097L156.166 42.6346ZM158.424 39.3663C158.934 37.9935 159.185 36.4419 159.185 34.7167H158.496C158.496 36.3754 158.254 37.8435 157.777 39.1262L158.424 39.3663ZM159.185 34.7167C159.185 33.004 158.94 31.4701 158.442 30.1206L157.794 30.3595C158.26 31.6184 158.496 33.069 158.496 34.7167H159.185ZM158.442 30.1206C157.941 28.7655 157.189 27.6867 156.179 26.9013L155.756 27.4454C156.65 28.1404 157.332 29.1061 157.795 30.3595L158.442 30.1206ZM156.179 26.9013C155.157 26.1059 153.891 25.7183 152.407 25.7183V26.4077C153.767 26.4077 154.875 26.7602 155.756 27.4454L156.179 26.9013ZM152.407 25.7183C150.981 25.7183 149.748 26.0947 148.728 26.8627L149.143 27.4134C150.026 26.748 151.108 26.4077 152.407 26.4077V25.7183ZM148.728 26.8627C147.717 27.6244 146.958 28.6859 146.445 30.0289L147.09 30.2748C147.564 29.033 148.251 28.0852 149.143 27.4134L148.728 26.8627ZM146.445 30.0315C145.946 31.3713 145.7 32.9355 145.7 34.7167H146.39C146.39 32.9965 146.627 31.5175 147.091 30.2723L146.445 30.0315ZM187.241 28.3366L187.279 28.6792L187.649 28.6388L187.58 28.2726L187.241 28.3366ZM181.425 28.971L181.093 29.064L181.172 29.3453L181.462 29.3137L181.425 28.971ZM180.561 27.3143L180.288 27.5251L180.292 27.5289L180.561 27.3143ZM173.088 26.4507L172.904 26.1599L172.902 26.161L173.088 26.4507ZM171.767 28.689L172.112 28.6942L172.111 28.6846L171.767 28.689ZM172.63 30.6101L172.409 30.874L172.411 30.8762L172.63 30.6101ZM175.591 31.8263L175.513 32.1621L175.519 32.1633L175.591 31.8263ZM180.209 32.8132L180.281 32.4763L180.281 32.4762L180.209 32.8132ZM185.919 35.4393L185.68 35.6876L185.682 35.6887L185.919 35.4393ZM187.823 40.1451L188.167 40.1475V40.143L187.823 40.1451ZM168.259 46.7015L168.063 46.9849L168.065 46.9857L168.259 46.7015ZM164.646 40.8677L164.613 40.5246L164.249 40.5597L164.306 40.9207L164.646 40.8677ZM170.868 40.2684L171.204 40.191L171.135 39.8964L170.835 39.9254L170.868 40.2684ZM179.891 43.0355L179.7 42.7493L179.698 42.7505L179.891 43.0355ZM180.385 38.8056L180.16 39.067L180.163 39.0691L180.385 38.8056ZM177.636 37.6424L177.709 37.3055L177.706 37.3051L177.636 37.6424ZM173.018 36.673L173.089 36.3357L173.088 36.3356L173.018 36.673ZM167.255 33.9412L167.006 34.1804L167.008 34.1815L167.255 33.9412ZM165.404 29.0416L165.748 29.0436V29.0391L165.404 29.0416ZM166.761 24.7059L166.486 24.4987L166.485 24.4991L166.761 24.7059ZM170.621 21.8507L170.751 22.1699L170.752 22.1694L170.621 21.8507ZM183.84 22.8552L183.634 23.1321L183.635 23.1327L183.84 22.8552ZM187.204 27.9939L181.388 28.6284L181.462 29.3137L187.279 28.6792L187.204 27.9939ZM181.757 28.8781C181.579 28.2428 181.269 27.6497 180.831 27.0997L180.292 27.5289C180.676 28.0129 180.942 28.5244 181.093 29.064L181.757 28.8781ZM180.834 27.1036C180.396 26.5368 179.809 26.0875 179.085 25.7505L178.795 26.3754C179.434 26.673 179.928 27.0579 180.288 27.5251L180.834 27.1036ZM179.085 25.7505C178.346 25.4065 177.459 25.2424 176.437 25.2424V25.9318C177.389 25.9318 178.171 26.0849 178.795 26.3754L179.085 25.7505ZM176.437 25.2424C175.06 25.2424 173.876 25.5415 172.904 26.1599L173.274 26.7415C174.111 26.2084 175.159 25.9318 176.437 25.9318V25.2424ZM172.902 26.161C171.928 26.7891 171.408 27.6377 171.422 28.6934L172.111 28.6846C172.101 27.9074 172.463 27.2639 173.275 26.7404L172.902 26.161ZM171.422 28.6839C171.408 29.5716 171.739 30.3119 172.409 30.874L172.852 30.3462C172.346 29.9214 172.101 29.381 172.111 28.6942L171.422 28.6839ZM172.411 30.8762C173.072 31.4211 174.123 31.8411 175.513 32.1621L175.668 31.4904C174.31 31.1769 173.386 30.7862 172.849 30.3441L172.411 30.8762ZM175.519 32.1633L180.137 33.1502L180.281 32.4762L175.663 31.4892L175.519 32.1633ZM180.136 33.1501C182.665 33.6954 184.499 34.5509 185.68 35.6876L186.158 35.1909C184.849 33.9308 182.875 33.0355 180.281 32.4763L180.136 33.1501ZM185.682 35.6887C186.863 36.8149 187.467 38.29 187.478 40.1472L188.167 40.143C188.155 38.1227 187.49 36.4606 186.157 35.1898L185.682 35.6887ZM187.478 40.1427C187.467 41.7754 186.99 43.2066 186.05 44.449L186.6 44.865C187.633 43.4989 188.155 41.9221 188.167 40.1475L187.478 40.1427ZM186.05 44.449C185.116 45.6853 183.812 46.6617 182.12 47.3705L182.387 48.0063C184.173 47.2582 185.582 46.2136 186.6 44.865L186.05 44.449ZM182.12 47.3705C180.431 48.0782 178.48 48.4365 176.261 48.4365V49.1258C178.554 49.1258 180.598 48.7556 182.387 48.0063L182.12 47.3705ZM176.261 48.4365C172.993 48.4365 170.401 47.7527 168.454 46.4173L168.065 46.9857C170.159 48.4232 172.902 49.1258 176.261 49.1258V48.4365ZM168.455 46.418C166.514 45.0751 165.36 43.215 164.987 40.8147L164.306 40.9207C164.708 43.5023 165.962 45.5313 168.063 46.9849L168.455 46.418ZM164.679 41.2107L170.9 40.6115L170.835 39.9254L164.613 40.5246L164.679 41.2107ZM170.532 40.3459C170.831 41.6405 171.474 42.6425 172.471 43.3206L172.859 42.7505C172.024 42.183 171.469 41.3403 171.204 40.191L170.532 40.3459ZM172.471 43.3206C173.461 43.993 174.728 44.3143 176.243 44.3143V43.625C174.821 43.625 173.703 43.3236 172.859 42.7505L172.471 43.3206ZM176.243 44.3143C177.803 44.3143 179.094 43.9941 180.085 43.3206L179.698 42.7505C178.856 43.3225 177.714 43.625 176.243 43.625V44.3143ZM180.084 43.3217C181.083 42.6511 181.628 41.7841 181.628 40.7267H180.939C180.939 41.5022 180.556 42.1746 179.7 42.7493L180.084 43.3217ZM181.628 40.7267C181.628 39.8484 181.283 39.112 180.607 38.5421L180.163 39.0691C180.685 39.5096 180.939 40.0541 180.939 40.7267H181.628ZM180.61 38.5443C179.959 37.9849 178.978 37.581 177.709 37.3055L177.563 37.9792C178.784 38.2443 179.636 38.6159 180.16 39.067L180.61 38.5443ZM177.706 37.3051L173.089 36.3357L172.947 37.0103L177.565 37.9797L177.706 37.3051ZM173.088 36.3356C170.528 35.8027 168.682 34.9138 167.502 33.7009L167.008 34.1815C168.319 35.5301 170.314 36.4622 172.947 37.0103L173.088 36.3356ZM167.503 33.7021C166.326 32.4811 165.737 30.9375 165.748 29.0436L165.059 29.0395C165.047 31.0935 165.692 32.8164 167.006 34.1804L167.503 33.7021ZM165.748 29.0391C165.737 27.4387 166.17 26.0687 167.037 24.9127L166.485 24.4991C165.52 25.787 165.047 27.3075 165.059 29.044L165.748 29.0391ZM167.037 24.9127C167.922 23.7359 169.155 22.8197 170.751 22.1699L170.491 21.5315C168.797 22.2211 167.457 23.208 166.486 24.4987L167.037 24.9127ZM170.752 22.1694C172.36 21.5082 174.223 21.1731 176.349 21.1731V20.4838C174.151 20.4838 172.196 20.8302 170.49 21.532L170.752 22.1694ZM176.349 21.1731C179.476 21.1731 181.892 21.8395 183.634 23.1321L184.045 22.5785C182.145 21.1687 179.567 20.4838 176.349 20.4838V21.1731ZM183.635 23.1327C185.395 24.4306 186.483 26.1803 186.902 28.4005L187.58 28.2726C187.129 25.8869 185.949 23.9824 184.044 22.5779L183.635 23.1327ZM193.073 47.0892L192.9 47.3873L192.902 47.3884L193.073 47.0892ZM188.544 42.26L188.236 42.4155V42.4162L188.544 42.26ZM188.544 27.5435L188.236 27.3879L188.235 27.3886L188.544 27.5435ZM193.02 22.6085L193.201 22.9023L193.202 22.9015L193.02 22.6085ZM204.494 21.6391L204.376 21.9629L204.379 21.964L204.494 21.6391ZM208.442 24.1066L208.201 24.3529L208.202 24.3541L208.442 24.1066ZM211.156 28.3718L210.834 28.4945V28.4953L211.156 28.3718ZM212.143 36.4615V36.8062H212.488V36.4615H212.143ZM189.953 36.4615H189.609V36.8062H189.953V36.4615ZM189.953 32.1611V31.8164H189.609V32.1611H189.953ZM206.028 32.1611V32.5057H206.375L206.371 32.1578L206.028 32.1611ZM205.234 28.9005L204.93 29.0635L204.932 29.0651L205.234 28.9005ZM203.066 26.6269L202.888 26.9222L202.89 26.9231L203.066 26.6269ZM196.422 26.7503L196.606 27.0418L196.608 27.0403L196.422 26.7503ZM194.113 29.2178L193.81 29.054L193.809 29.0552L194.113 29.2178ZM193.285 32.5489L192.94 32.5455V32.5489H193.285ZM194.148 40.3566L193.841 40.5133L193.842 40.5146L194.148 40.3566ZM196.562 42.9298L196.39 43.228L196.392 43.2294L196.562 42.9298ZM202.714 43.4233L202.826 43.7492L202.83 43.7477L202.714 43.4233ZM205.921 40.3213L205.96 39.9788L205.692 39.9487L205.598 40.2019L205.921 40.3213ZM211.878 40.9911L212.213 41.0711L212.304 40.6921L211.917 40.6485L211.878 40.9911ZM205.71 47.8295L205.835 48.1507L205.837 48.1499L205.71 47.8295ZM200.106 48.4365C197.439 48.4365 195.157 47.8829 193.244 46.79L192.902 47.3884C194.937 48.5515 197.343 49.1258 200.106 49.1258V48.4365ZM193.246 46.7911C191.343 45.6858 189.879 44.1261 188.851 42.1038L188.236 42.4162C189.323 44.5534 190.878 46.2131 192.9 47.3873L193.246 46.7911ZM188.851 42.1038C187.823 40.0696 187.302 37.6641 187.302 34.8753H186.613C186.613 37.7499 187.15 40.2669 188.236 42.4155L188.851 42.1038ZM187.302 34.8753C187.302 32.1346 187.822 29.7454 188.852 27.6983L188.235 27.3886C187.15 29.5479 186.613 32.0466 186.613 34.8753H187.302ZM188.851 27.699C189.893 25.6378 191.343 24.0421 193.201 22.9023L192.84 22.3148C190.867 23.525 189.332 25.2193 188.236 27.3879L188.851 27.699ZM193.202 22.9015C195.055 21.7533 197.24 21.1731 199.771 21.1731V20.4838C197.131 20.4838 194.816 21.0903 192.839 22.3156L193.202 22.9015ZM199.771 21.1731C201.401 21.1731 202.935 21.437 204.376 21.9629L204.612 21.3154C203.092 20.7603 201.477 20.4838 199.771 20.4838V21.1731ZM204.379 21.964C205.823 22.4759 207.097 23.2714 208.201 24.3529L208.683 23.8604C207.507 22.7094 206.149 21.8599 204.609 21.3143L204.379 21.964ZM208.202 24.3541C209.312 25.4303 210.191 26.8072 210.834 28.4945L211.478 28.2491C210.805 26.482 209.875 25.0154 208.681 23.8592L208.202 24.3541ZM210.834 28.4953C211.473 30.1617 211.799 32.1622 211.799 34.5052H212.488C212.488 32.1012 212.155 30.0129 211.478 28.2484L210.834 28.4953ZM211.799 34.5052V36.4615H212.488V34.5052H211.799ZM212.143 36.1169H189.953V36.8062H212.143V36.1169ZM190.298 36.4615V32.1611H189.609V36.4615H190.298ZM189.953 32.5057H206.028V31.8164H189.953V32.5057ZM206.371 32.1578C206.36 30.8868 206.084 29.7434 205.537 28.736L204.932 29.0651C205.418 29.9612 205.671 30.9914 205.683 32.1645L206.371 32.1578ZM205.538 28.7376C204.991 27.7196 204.225 26.9154 203.243 26.3307L202.89 26.9231C203.764 27.443 204.443 28.1545 204.93 29.0635L205.538 28.7376ZM203.244 26.3318C202.267 25.7427 201.134 25.4539 199.859 25.4539V26.1432C201.027 26.1432 202.033 26.4067 202.888 26.9222L203.244 26.3318ZM199.859 25.4539C198.496 25.4539 197.284 25.7863 196.235 26.4604L196.608 27.0403C197.534 26.4454 198.613 26.1432 199.859 26.1432V25.4539ZM196.238 26.4589C195.201 27.113 194.39 27.9794 193.81 29.054L194.416 29.3816C194.94 28.4117 195.668 27.6331 196.606 27.0418L196.238 26.4589ZM193.809 29.0552C193.241 30.1174 192.952 31.2829 192.94 32.5455L193.629 32.5522C193.64 31.3943 193.904 30.3391 194.417 29.3804L193.809 29.0552ZM192.94 32.5489V36.3029H193.629V32.5489H192.94ZM192.94 36.3029C192.94 37.9188 193.235 39.3264 193.841 40.5133L194.455 40.1999C193.909 39.1308 193.629 37.8359 193.629 36.3029H192.94ZM193.842 40.5146C194.446 41.6862 195.296 42.594 196.39 43.228L196.735 42.6316C195.761 42.0671 195.002 41.2594 194.455 40.1986L193.842 40.5146ZM196.392 43.2294C197.486 43.851 198.757 44.1557 200.193 44.1557V43.4663C198.857 43.4663 197.707 43.1835 196.733 42.6301L196.392 43.2294ZM200.193 44.1557C201.153 44.1557 202.032 44.022 202.826 43.7492L202.602 43.0973C201.891 43.3416 201.09 43.4663 200.193 43.4663V44.1557ZM202.83 43.7477C203.624 43.4624 204.317 43.0449 204.905 42.4941L204.435 41.9908C203.918 42.4739 203.307 42.8437 202.597 43.0989L202.83 43.7477ZM204.905 42.4941C205.5 41.9376 205.945 41.2509 206.245 40.4407L205.598 40.2019C205.333 40.9193 204.945 41.5132 204.435 41.9908L204.905 42.4941ZM205.883 40.6638L211.84 41.3336L211.917 40.6485L205.96 39.9788L205.883 40.6638ZM211.543 40.911C211.18 42.4309 210.49 43.7535 209.472 44.8847L209.984 45.3458C211.082 44.127 211.825 42.7002 212.213 41.0711L211.543 40.911ZM209.472 44.8847C208.466 46.0037 207.173 46.8799 205.583 47.5089L205.837 48.1499C207.514 47.4865 208.899 46.5532 209.985 45.3456L209.472 44.8847ZM205.585 47.5082C203.999 48.1244 202.174 48.4365 200.106 48.4365V49.1258C202.243 49.1258 204.155 48.8034 205.835 48.1507L205.585 47.5082Z" fill="#6C91C9" fill-opacity="0.5"/>
</g>
</g>
</svg>
