<svg width="431" height="384" viewBox="0 0 431 384" fill="none" xmlns="http://www.w3.org/2000/svg">
<path d="M52.7404 244.716C47.2311 234.584 44.9521 224.412 45.9033 214.203C46.8031 203.898 50.2396 194.423 56.2126 185.776C62.2804 177.079 70.1438 170.104 79.8028 164.852C93.4391 157.438 107.078 154.316 120.72 155.487C134.457 156.606 146.154 161.534 155.812 170.27C160.34 174.31 164.046 178.982 166.929 184.285C171.872 193.376 174.277 202.313 174.145 211.096C174.013 219.879 172.682 228.148 170.151 235.904C167.568 243.566 165.129 250.475 162.833 256.631C160.666 262.349 159.055 267.396 157.999 271.774C157.039 276.1 158 280.914 160.883 286.217C161.398 287.164 162.158 288.223 163.163 289.394C164.117 290.471 165.031 291.814 165.906 293.424C167.811 296.928 168.202 300.58 167.079 304.381C165.904 308.087 163.517 310.918 159.919 312.875C155.942 315.037 152.341 315.523 149.116 314.332C145.935 312.994 143.164 310.943 140.802 308.178C138.483 305.267 136.628 302.534 135.238 299.977C130.759 291.738 128.627 283.757 128.844 276.032C129.009 268.212 130.344 260.739 132.848 253.61C135.352 246.482 137.895 239.763 140.475 233.452C143.056 227.141 144.518 221.255 144.86 215.793C144.994 212.653 144.868 209.715 144.485 206.979C144.05 204.148 143.009 201.217 141.361 198.187C136.933 190.043 130.216 185.475 121.211 184.482C112.248 183.343 103.174 185.271 93.9889 190.266C85.7504 194.745 80.0475 200.729 76.8804 208.218C73.6618 215.612 74.1636 223.191 78.3857 230.956C78.5916 231.335 78.8491 231.808 79.158 232.377C79.5616 232.893 79.9694 233.53 80.3813 234.288C82.2864 237.792 82.6515 241.397 81.4766 245.103C80.3018 248.809 77.9151 251.64 74.3166 253.597C69.4871 256.223 65.1986 256.346 61.451 253.967C57.7035 251.588 54.8 248.504 52.7404 244.716ZM166.337 318.587C171.072 316.012 176.024 315.529 181.191 317.136C186.403 318.596 190.295 321.694 192.87 326.429C195.444 331.164 195.954 336.163 194.398 341.425C192.886 346.542 189.763 350.387 185.028 352.962C180.293 355.536 175.32 356.093 170.109 354.632C164.941 353.025 161.07 349.854 158.495 345.12C155.921 340.385 155.39 335.459 156.902 330.343C158.457 325.08 161.602 321.161 166.337 318.587Z" fill="black"/>
<path d="M254.496 83.5683C261.383 73.5371 269.854 66.5241 279.907 62.5294C290.025 58.4408 300.579 57.134 311.567 58.609C322.649 60.1483 332.971 64.2006 342.534 70.766C356.034 80.0348 365.5 91.3619 370.931 104.747C376.457 118.197 377.426 131.553 373.838 144.815C372.208 151.007 369.59 156.728 365.986 161.977C359.807 170.977 352.557 177.518 344.237 181.6C335.917 185.681 327.505 188.389 319.002 189.724C310.563 190.965 302.9 191.98 296.013 192.77C289.6 193.47 284.084 194.373 279.463 195.477C274.937 196.645 270.871 199.854 267.266 205.104C266.623 206.042 265.991 207.263 265.371 208.769C264.816 210.181 263.991 211.684 262.896 213.277C260.515 216.746 257.269 218.862 253.158 219.626C249.111 220.297 245.306 219.409 241.744 216.963C237.806 214.259 235.626 211.107 235.202 207.505C234.936 203.874 235.537 200.286 237.005 196.742C238.631 193.168 240.313 190.116 242.051 187.585C247.651 179.428 254.133 173.603 261.499 170.107C268.929 166.518 276.594 164.194 284.495 163.135C292.395 162.076 299.929 161.248 307.097 160.652C314.266 160.056 320.5 158.612 325.799 156.318C328.814 154.94 331.516 153.416 333.904 151.745C336.357 149.981 338.614 147.598 340.673 144.598C346.209 136.536 347.287 128.034 343.908 119.093C340.687 110.122 334.53 102.515 325.436 96.2715C317.28 90.6716 308.924 88.1759 300.367 88.7845C291.875 89.2994 284.99 93.4005 279.712 101.088C279.454 101.463 279.133 101.932 278.746 102.494C278.454 103.121 278.05 103.809 277.535 104.559C275.154 108.028 271.94 110.098 267.893 110.768C263.846 111.438 260.042 110.55 256.479 108.104C251.698 104.822 249.528 100.849 249.971 96.1868C250.413 91.5244 251.921 87.3183 254.496 83.5683ZM239.448 225.732C244.135 228.95 246.961 233.373 247.925 239.001C249.047 244.6 247.999 249.743 244.781 254.43C241.562 259.117 237.107 261.99 231.415 263.048C225.881 264.076 220.77 262.981 216.082 259.763C211.395 256.545 208.49 252.136 207.368 246.538C206.404 240.91 207.531 235.752 210.75 231.065C213.968 226.377 218.344 223.519 223.878 222.491C229.57 221.433 234.76 222.514 239.448 225.732Z" fill="black"/>
<path d="M296.479 275.551C296.886 271.272 298.3 267.654 300.721 264.696C303.145 261.699 306.181 259.486 309.828 258.058C313.514 256.633 317.397 256.115 321.477 256.504C327.235 257.052 332.101 258.928 336.073 262.131C340.086 265.338 342.675 269.298 343.84 274.009C344.398 276.201 344.57 278.417 344.357 280.656C343.991 284.495 342.874 287.758 341.003 290.445C339.133 293.132 336.999 295.411 334.602 297.281C332.208 299.111 330.015 300.738 328.023 302.163C326.163 303.479 324.613 304.703 323.376 305.836C322.178 306.973 321.472 308.661 321.259 310.901C321.221 311.301 321.235 311.786 321.302 312.358C321.372 312.889 321.375 313.495 321.31 314.174C321.169 315.654 320.529 316.864 319.39 317.805C318.255 318.706 316.928 319.084 315.408 318.939C313.729 318.779 312.515 318.179 311.766 317.139C311.062 316.063 310.632 314.852 310.478 313.506C310.368 312.123 310.364 310.892 310.467 309.812C310.798 306.333 311.802 303.422 313.478 301.08C315.157 298.698 317.126 296.666 319.385 294.984C321.644 293.303 323.829 291.755 325.941 290.342C328.053 288.929 329.731 287.415 330.974 285.798C331.669 284.855 332.242 283.921 332.694 282.995C333.149 282.03 333.438 280.907 333.559 279.628C333.887 276.188 332.763 273.378 330.186 271.195C327.653 268.977 324.447 267.682 320.568 267.313C317.089 266.982 314.08 267.643 311.541 269.298C309.007 270.913 307.583 273.36 307.271 276.639C307.256 276.799 307.237 276.999 307.214 277.239C307.231 277.483 307.224 277.765 307.194 278.085C307.053 279.564 306.415 280.755 305.28 281.655C304.145 282.556 302.817 282.934 301.298 282.789C299.258 282.595 297.907 281.74 297.244 280.224C296.582 278.708 296.326 277.151 296.479 275.551ZM316.203 322.041C318.202 322.232 319.833 323.113 321.096 324.686C322.402 326.223 322.96 327.991 322.77 329.991C322.579 331.991 321.695 333.642 320.119 334.944C318.586 336.211 316.819 336.749 314.82 336.558C312.82 336.368 311.167 335.504 309.861 333.967C308.598 332.394 308.062 330.608 308.253 328.608C308.443 326.609 309.305 324.976 310.838 323.709C312.415 322.407 314.203 321.851 316.203 322.041Z" fill="black"/>
</svg>
