<svg width="472" height="419" viewBox="0 0 472 419" fill="none" xmlns="http://www.w3.org/2000/svg">
<path fill-rule="evenodd" clip-rule="evenodd" d="M333.958 80.4347C351.708 82.9728 367.968 90.625 380.015 103.415C410.462 135.738 402.47 188.634 362.165 221.563C321.86 254.491 264.505 254.982 234.058 222.659C220.777 208.559 214.81 190.543 215.649 171.978C208.55 221.046 239.43 269.523 291.667 286.029C351 304.777 415.418 275.181 435.549 219.923C455.681 164.666 423.901 104.672 364.568 85.9238C354.431 82.7207 344.146 80.9287 333.958 80.4347Z" fill="#6C91C9"/>
<path fill-rule="evenodd" clip-rule="evenodd" d="M287.893 30.2132C255.683 24.9189 222.83 29.2567 194.014 44.7507C121.181 83.9124 101.725 179.515 150.557 258.286C199.39 337.056 298.019 369.165 370.851 330.003C402.625 312.919 424.24 285.092 434.459 252.608C415.872 341.123 332.138 407.917 231.653 407.917C117.522 407.917 25 321.75 25 215.458C25 109.167 117.522 23 231.653 23C251.148 23 270.012 25.5141 287.893 30.2132Z" fill="#B6C8E4"/>
<path d="M159.154 96.2161C148.907 126.269 160.008 157.261 166.839 169C220.636 166.652 243.692 140.826 246.254 138.478C284.68 96.2162 230.883 84.4768 225.76 82.1289C187.333 37.5194 159.154 93.8682 159.154 96.2161Z" fill="#B6C8E4" stroke="#B6C8E4" stroke-width="0.3"/>
<path d="M288.809 165.311C281.88 185.828 289.386 206.986 294.005 215C330.383 213.397 345.973 195.766 347.705 194.163C373.689 165.311 337.311 157.297 333.847 155.694C307.863 125.239 288.809 163.708 288.809 165.311Z" fill="#6C91C9" stroke="#6C91C9" stroke-width="0.3"/>
</svg>
